<svg width="60" height="59" viewBox="0 0 60 59" fill="none" xmlns="http://www.w3.org/2000/svg">
<g clip-path="url(#clip0_521_310)">
<path d="M10.6251 3.04267e-06H49.3749C50.7705 -0.00105349 52.1527 0.273051 53.4422 0.806636C54.7318 1.34022 55.9035 2.12282 56.8904 3.10966C57.8772 4.0965 58.6598 5.26821 59.1934 6.55778C59.727 7.84735 60.0011 9.22947 60 10.6251V47.8748C60.0011 49.2704 59.727 50.6525 59.1934 51.9421C58.6598 53.2316 57.8772 54.4034 56.8904 55.3902C55.9035 56.377 54.7318 57.1596 53.4422 57.6932C52.1527 58.2268 50.7705 58.5009 49.3749 58.4998H10.6251C9.22947 58.5009 7.84735 58.2268 6.55778 57.6932C5.26821 57.1596 4.0965 56.377 3.10966 55.3902C2.12282 54.4034 1.34022 53.2316 0.806636 51.9421C0.273051 50.6525 -0.00105349 49.2704 3.04267e-06 47.8748V10.6251C-0.00105349 9.22947 0.273051 7.84735 0.806636 6.55778C1.34022 5.26821 2.12282 4.0965 3.10966 3.10966C4.0965 2.12282 5.26821 1.34022 6.55778 0.806636C7.84735 0.273051 9.22947 -0.00105349 10.6251 3.04267e-06Z" fill="#AAAAAA"/>
<path d="M24.1005 34.9998H14.8034L12.9033 40.8995C12.8821 41.0065 12.8217 41.1019 12.7339 41.1667C12.6461 41.2316 12.5372 41.2613 12.4287 41.2501H7.72847C7.453 41.2501 7.37839 41.0997 7.453 40.7996L15.5001 17.7251C15.5753 17.4748 15.6505 17.2499 15.7504 16.9497C15.8511 16.4133 15.9015 15.8686 15.9007 15.3227C15.8926 15.26 15.9089 15.1965 15.9461 15.1454C15.9834 15.0943 16.0388 15.0594 16.101 15.0479H22.5757C22.7478 15.0479 22.8758 15.123 22.9005 15.2481L32.0237 40.8748C32.0989 41.1497 32.0237 41.2765 31.7735 41.2765H26.551C26.4624 41.2854 26.3735 41.2627 26.3 41.2124C26.2265 41.1621 26.1731 41.0875 26.1493 41.0016L24.1005 34.9998ZM16.2508 30.0242H22.6003C22.4506 29.4996 22.2503 28.8764 22.0265 28.2244C21.8015 27.5495 21.5765 26.8247 21.3516 26.0752C21.1013 25.2993 20.8769 24.5498 20.6267 23.7751C20.3765 23.0003 20.1521 22.2749 19.9518 21.5501C19.7515 20.8499 19.5765 20.1997 19.4015 19.5988H19.3515C19.127 20.6886 18.8433 21.7652 18.5016 22.8241C18.1268 24.0241 17.7515 25.2741 17.3538 26.524C17.029 27.7992 16.629 28.974 16.2542 30.0248L16.2508 30.0242Z" fill="black"/>
<path d="M46.8505 32.6997H38.925C39.0198 33.4885 39.2841 34.2475 39.6998 34.9246C40.1417 35.5986 40.7785 36.1218 41.5253 36.4248C42.5358 36.8566 43.6261 37.0696 44.7248 37.0498C45.5979 37.0338 46.468 36.9416 47.3251 36.7743C48.0875 36.6751 48.8348 36.4823 49.5501 36.2004C49.6746 36.1 49.7498 36.1499 49.7498 36.4001V40.2251C49.7455 40.3268 49.7287 40.4277 49.6999 40.5253C49.6557 40.5953 49.597 40.655 49.5277 40.7003C48.7281 41.0514 47.8886 41.3033 47.0278 41.4504C45.8585 41.6752 44.6687 41.7756 43.4783 41.75C41.5776 41.75 39.9775 41.4504 38.6782 40.8754C37.4533 40.3448 36.3721 39.5304 35.5241 38.4994C34.7336 37.5363 34.1478 36.422 33.8024 35.2248C33.0698 32.7306 33.1045 30.0736 33.9023 27.5995C34.3009 26.3476 34.9378 25.1846 35.7778 24.1745C36.6044 23.1756 37.6358 22.3658 38.8022 21.7997C39.9775 21.2258 41.3778 21.0244 42.9773 21.0244C44.3105 20.9936 45.634 21.2584 46.8528 21.7997C47.8765 22.2443 48.7771 22.9306 49.4772 23.7997C50.142 24.6534 50.6499 25.6184 50.9774 26.6497C51.2953 27.6351 51.4556 28.6645 51.4525 29.6999C51.4525 30.2996 51.4273 30.8248 51.4026 31.2999C51.3527 31.7745 51.3274 32.1246 51.3022 32.3496C51.2911 32.4362 51.25 32.5161 51.1861 32.5755C51.1221 32.6349 51.0393 32.6699 50.9521 32.6744C50.8023 32.6744 50.5274 32.6997 50.1274 32.7243C49.6462 32.7793 49.1621 32.8044 48.6778 32.7995C48.1039 32.7995 47.5024 32.6997 46.8528 32.6997H46.8505ZM38.925 29.0497H44.1997C44.8499 29.0497 45.3251 29.0497 45.6247 29.025C45.8297 29.0075 46.0271 28.9386 46.1985 28.8247V28.5745C46.1994 28.2602 46.1486 27.9478 46.0482 27.65C45.8297 26.9657 45.3944 26.3711 44.808 25.9562C44.2217 25.5412 43.5162 25.3284 42.7982 25.3498C42.1198 25.3118 41.4448 25.4709 40.8548 25.808C40.2648 26.1451 39.7849 26.6457 39.4731 27.2494C39.1824 27.8112 38.9967 28.4213 38.925 29.0497Z" fill="black"/>
</g>
<defs>
<clipPath id="clip0_521_310">
<rect width="60" height="58.4998" fill="white"/>
</clipPath>
</defs>
</svg>
