<svg width="60" height="59" viewBox="0 0 60 59" fill="none" xmlns="http://www.w3.org/2000/svg">
<path d="M10.625 0H49.375C55.25 0 60 4.75 60 10.625V47.875C60 53.75 55.25 58.5 49.375 58.5H10.625C4.75 58.5 0 53.75 0 47.875V10.625C0 4.75 4.75 0 10.625 0Z" fill="#AAAAAA"/>
<path d="M14.25 41.025V15.3C14.25 15.125 14.325 15.025 14.5 15.025C14.925 15.025 15.325 15.025 15.9 15C16.5 14.975 17.125 14.975 17.8 14.95C18.475 14.925 19.2 14.925 19.975 14.9C20.75 14.875 21.5 14.875 22.25 14.875C24.3 14.875 26 15.125 27.4 15.65C28.65 16.075 29.8 16.775 30.75 17.7C31.55 18.5 32.175 19.475 32.575 20.55C32.95 21.6 33.15 22.675 33.15 23.8C33.15 25.95 32.65 27.725 31.65 29.125C30.65 30.525 29.25 31.575 27.625 32.175C25.925 32.8 24.05 33.025 22 33.025C21.4 33.025 21 33.025 20.75 33C20.5 32.975 20.15 32.975 19.675 32.975V41C19.7 41.175 19.575 41.325 19.4 41.35H14.55C14.35 41.35 14.25 41.25 14.25 41.025ZM19.7 19.85V28.25C20.05 28.275 20.375 28.3 20.675 28.3H22C22.975 28.3 23.95 28.15 24.875 27.85C25.675 27.625 26.375 27.15 26.925 26.525C27.45 25.9 27.7 25.05 27.7 23.95C27.725 23.175 27.525 22.4 27.125 21.725C26.7 21.075 26.1 20.575 25.375 20.3C24.45 19.925 23.45 19.775 22.425 19.8C21.775 19.8 21.2 19.8 20.725 19.825C20.225 19.8 19.875 19.825 19.7 19.85Z" fill="#040404"/>
<path d="M36.6503 21.2998H41.0253C41.2753 21.2998 41.4753 21.4748 41.5503 21.6998C41.6253 21.8998 41.6753 22.0998 41.7003 22.3248C41.7503 22.5748 41.8003 22.8498 41.8253 23.0998C41.8503 23.3748 41.8753 23.6748 41.8753 23.9998C42.6253 23.1248 43.5253 22.3998 44.5503 21.8498C45.7003 21.1998 47.0253 20.8748 48.3503 20.8748C48.5253 20.8498 48.6753 20.9748 48.7003 21.1498V26.1248C48.7003 26.3248 48.5753 26.3998 48.3003 26.3998C47.4003 26.3748 46.4753 26.4498 45.6003 26.6498C44.8753 26.7998 44.1753 27.0248 43.5003 27.3248C43.0253 27.5498 42.5753 27.8498 42.2253 28.2498V40.9998C42.2253 41.2498 42.1253 41.3498 41.9003 41.3498H36.9753C36.7753 41.3748 36.6003 41.2498 36.5753 41.0498V27.0998C36.5753 26.4998 36.5753 25.8748 36.5503 25.2248C36.5253 24.5748 36.5253 23.9248 36.5003 23.2748C36.5003 22.6998 36.4503 22.1498 36.4003 21.5748C36.3753 21.4498 36.4503 21.3248 36.5753 21.2998C36.5753 21.2748 36.6253 21.2748 36.6503 21.2998Z" fill="#040404"/>
</svg>
