<svg width="60" height="59" viewBox="0 0 60 59" fill="none" xmlns="http://www.w3.org/2000/svg">
<g clip-path="url(#clip0_521_279)">
<path d="M10.625 0H49.375C55.25 0 60 4.75 60 10.625V47.875C60 53.75 55.25 58.5 49.375 58.5H10.625C4.75 58.5 0 53.75 0 47.875V10.625C0 4.75 4.75 0 10.625 0Z" fill="#AAAAAA"/>
<path d="M13.5 41.025V15.3C13.5 15.125 13.575 15.025 13.75 15.025C14.175 15.025 14.575 15.025 15.15 15C15.75 14.975 16.375 14.975 17.05 14.95C17.725 14.925 18.45 14.925 19.225 14.9C20 14.875 20.75 14.875 21.5 14.875C23.55 14.875 25.25 15.125 26.65 15.65C27.9 16.075 29.05 16.775 30 17.7C30.8 18.5 31.425 19.475 31.825 20.55C32.2 21.6 32.4 22.675 32.4 23.8C32.4 25.95 31.9 27.725 30.9 29.125C29.9 30.525 28.5 31.575 26.875 32.175C25.175 32.8 23.3 33.025 21.25 33.025C20.65 33.025 20.25 33.025 20 33C19.75 32.975 19.4 32.975 18.925 32.975V41C18.95 41.175 18.825 41.325 18.65 41.35C18.625 41.35 18.6 41.35 18.55 41.35H13.8C13.6 41.35 13.5 41.25 13.5 41.025ZM18.95 19.85V28.25C19.3 28.275 19.625 28.3 19.925 28.3H21.25C22.225 28.3 23.2 28.15 24.125 27.85C24.925 27.625 25.625 27.15 26.175 26.525C26.7 25.9 26.95 25.05 26.95 23.95C26.975 23.175 26.775 22.4 26.375 21.725C25.95 21.075 25.35 20.575 24.625 20.3C23.7 19.925 22.7 19.775 21.675 19.8C21.025 19.8 20.45 19.8 19.975 19.825C19.475 19.8 19.125 19.825 18.95 19.85Z" fill="black"/>
<path d="M48.0005 26.7252C47.2505 26.3252 46.4504 26.0502 45.6004 25.8752C44.6754 25.6752 43.7504 25.5502 42.8004 25.5502C42.3004 25.5252 41.7754 25.6002 41.3004 25.7252C40.9754 25.8002 40.7005 25.9752 40.5255 26.2252C40.4005 26.4252 40.3255 26.6752 40.3255 26.9002C40.3255 27.1252 40.4255 27.3502 40.5755 27.5502C40.8005 27.8252 41.1004 28.0502 41.4254 28.2252C42.0004 28.5252 42.6005 28.8002 43.2005 29.0502C44.5505 29.5002 45.8504 30.1252 47.0504 30.8752C47.8754 31.4002 48.5505 32.1002 49.0255 32.9502C49.4255 33.7502 49.6254 34.6252 49.6004 35.5252C49.6254 36.7002 49.2754 37.8752 48.6255 38.8502C47.9255 39.8502 46.9505 40.6252 45.8255 41.0752C44.6005 41.6002 43.1004 41.8752 41.3004 41.8752C40.1504 41.8752 39.0255 41.7752 37.9005 41.5502C37.0255 41.4002 36.1504 41.1252 35.3504 40.7502C35.1754 40.6502 35.0505 40.4752 35.0755 40.2752V35.9252C35.0755 35.8502 35.1004 35.7502 35.1754 35.7002C35.2504 35.6502 35.3255 35.6752 35.4005 35.7252C36.3755 36.3002 37.4005 36.7002 38.5005 36.9502C39.4505 37.2002 40.4505 37.3252 41.4505 37.3252C42.4005 37.3252 43.0755 37.2002 43.5255 36.9752C43.9255 36.8002 44.2005 36.3752 44.2005 35.9252C44.2005 35.5752 44.0004 35.2502 43.6004 34.9252C43.2004 34.6002 42.3755 34.2252 41.1505 33.7502C39.8755 33.3002 38.7004 32.7002 37.6004 31.9502C36.8254 31.4002 36.1755 30.6752 35.7005 29.8252C35.3005 29.0252 35.1005 28.1502 35.1255 27.2752C35.1255 26.2002 35.4254 25.1752 35.9754 24.2502C36.6004 23.2502 37.5254 22.4502 38.6004 21.9502C39.7754 21.3502 41.2505 21.0752 43.0255 21.0752C44.0505 21.0752 45.1005 21.1502 46.1255 21.3002C46.8755 21.4002 47.6005 21.6002 48.2755 21.8752C48.3755 21.9002 48.4755 22.0002 48.5255 22.1002C48.5505 22.2002 48.5755 22.3002 48.5755 22.4002V26.4752C48.5755 26.5752 48.5255 26.6752 48.4505 26.7252C48.2255 26.7752 48.1005 26.7752 48.0005 26.7252Z" fill="black"/>
</g>
<defs>
<clipPath id="clip0_521_279">
<rect width="60" height="58.5" fill="white"/>
</clipPath>
</defs>
</svg>
