<svg width="60" height="59" viewBox="0 0 60 59" fill="none" xmlns="http://www.w3.org/2000/svg">
<g clip-path="url(#clip0_521_341)">
<path d="M10.625 0H49.3785C52.1964 0 54.8989 1.11942 56.8915 3.11199C58.8841 5.10457 60.0035 7.80708 60.0035 10.625V47.8752C60.0035 50.6931 58.8841 53.3956 56.8915 55.3882C54.8989 57.3808 52.1964 58.5002 49.3785 58.5002H10.625C7.80708 58.5002 5.10457 57.3808 3.11199 55.3882C1.11942 53.3956 0 50.6931 0 47.8752L0 10.625C0 7.80708 1.11942 5.10457 3.11199 3.11199C5.10457 1.11942 7.80708 0 10.625 0Z" fill="#AAAAAA"/>
<path d="M12.9785 41.0238V15.3036C12.9785 15.1163 13.0581 15.0226 13.2197 15.0226C13.6482 15.0226 14.1579 15.016 14.7488 15.0027C15.3396 14.9895 15.9769 14.9758 16.6607 14.9618L18.8349 14.922C19.5998 14.9079 20.3577 14.9009 21.1086 14.9009C23.1481 14.9009 24.8653 15.1561 26.2601 15.6666C27.5195 16.0917 28.6679 16.7929 29.6214 17.719C30.4298 18.5215 31.0546 19.4897 31.4526 20.557C31.8294 21.5954 32.0204 22.692 32.0169 23.7966C32.0169 25.9439 31.5205 27.7149 30.5276 29.1097C29.5282 30.5117 28.1235 31.574 26.5024 32.1538C24.6958 32.8037 22.7872 33.1241 20.8674 33.0998C20.2765 33.0998 19.8605 33.0928 19.6193 33.0787C19.3781 33.0658 19.0152 33.0588 18.5328 33.0588V40.9887C18.5445 41.0726 18.5225 41.1578 18.4716 41.2256C18.4207 41.2934 18.3451 41.3382 18.2612 41.3504C18.2313 41.3551 18.2009 41.3551 18.171 41.3504H13.2595C13.0722 41.3457 12.9785 41.2392 12.9785 41.0238ZM18.5328 19.8522V28.1848C18.8809 28.2121 19.2029 28.2254 19.4987 28.2246H20.8264C21.8006 28.2386 22.7713 28.1028 23.7042 27.8218C24.5017 27.585 25.2145 27.1242 25.7578 26.4941C26.2808 25.8775 26.5422 25.0189 26.5422 23.9184C26.5625 23.14 26.3593 22.3721 25.9568 21.7056C25.5321 21.06 24.9189 20.5609 24.2006 20.276C23.2651 19.913 22.2661 19.7422 21.2631 19.7737C20.6192 19.7737 20.049 19.7804 19.5526 19.7937C19.0561 19.8069 18.7139 19.8268 18.5258 19.8534L18.5328 19.8522Z" fill="black"/>
<path d="M46.9494 37.3614V40.6619C46.9494 40.9569 46.8421 41.1314 46.6274 41.1852C46.099 41.3504 45.5615 41.4848 45.0176 41.588C44.38 41.7015 43.7333 41.7552 43.0857 41.7484C41.3413 41.7484 39.973 41.2922 38.9809 40.3797C37.9889 39.4673 37.4924 38.0049 37.4917 35.9927V26.0105H35.1149C34.9007 26.0105 34.793 25.8934 34.793 25.6487V21.6598C34.793 21.4455 34.91 21.3378 35.1559 21.3378H37.5303C37.5568 20.882 37.5904 20.352 37.631 19.7479C37.672 19.1449 37.7247 18.5408 37.7926 17.9366C37.8605 17.3325 37.919 16.8431 37.9729 16.4685C37.9985 16.3884 38.0382 16.3135 38.0899 16.2472C38.1421 16.1817 38.212 16.1325 38.2913 16.1055L43.0857 15.5061C43.1586 15.4845 43.2366 15.4882 43.307 15.5166C43.3609 15.5435 43.3679 15.6138 43.3679 15.7508C43.3141 16.3682 43.275 17.2068 43.2508 18.2668C43.2266 19.3268 43.1997 20.3528 43.17 21.3448H46.9166C47.0782 21.3448 47.159 21.4526 47.159 21.6668V25.733C47.1685 25.7968 47.1528 25.8619 47.1152 25.9143C47.0776 25.9668 47.0211 26.0025 46.9576 26.014H43.1256V34.6276C43.1256 35.5408 43.2817 36.1918 43.5939 36.5805C43.9061 36.9692 44.4763 37.1643 45.3044 37.1659C45.5456 37.1659 45.7727 37.16 45.9893 37.146C46.2059 37.1319 46.4178 37.112 46.6333 37.0851C46.6693 37.0718 46.7079 37.0666 46.7462 37.0701C46.7844 37.0735 46.8215 37.0854 46.8546 37.105C46.8905 37.1364 46.9181 37.1763 46.9346 37.2211C46.9512 37.2659 46.9563 37.3141 46.9494 37.3614Z" fill="black"/>
</g>
<defs>
<clipPath id="clip0_521_341">
<rect width="60" height="58.5002" fill="white"/>
</clipPath>
</defs>
</svg>
