<svg width="60" height="59" viewBox="0 0 60 59" fill="none" xmlns="http://www.w3.org/2000/svg">
<g clip-path="url(#clip0_521_289)">
<path d="M10.625 0H49.375C55.25 0 60 4.75 60 10.625V47.875C60 53.75 55.25 58.5 49.375 58.5H10.625C4.75 58.5 0 53.75 0 47.875V10.625C0 4.75 4.75 0 10.625 0Z" fill="#AAAAAA"/>
<path d="M29.0749 35.1001H19.7748L17.8748 40.9751C17.8248 41.2001 17.6248 41.3501 17.3998 41.3251H12.6998C12.4248 41.3251 12.3498 41.1751 12.4248 40.8751L20.4748 17.7001C20.5498 17.4501 20.6248 17.1751 20.7248 16.8751C20.8249 16.3501 20.8748 15.8001 20.8748 15.2501C20.8498 15.1251 20.9499 15.0001 21.0749 14.9751C21.0998 14.9751 21.1248 14.9751 21.1498 14.9751H27.5498C27.7498 14.9751 27.8498 15.0501 27.8748 15.1751L36.9998 40.9251C37.0749 41.2001 36.9998 41.3251 36.7498 41.3251H31.5248C31.3498 41.3501 31.1748 41.2251 31.1248 41.0501L29.0749 35.1001ZM21.2248 30.0251H27.5749C27.4249 29.5001 27.2248 28.8751 26.9998 28.2251C26.7748 27.5501 26.5499 26.8251 26.3249 26.0751C26.0749 25.3001 25.8498 24.5501 25.5998 23.7751C25.3498 23.0001 25.1248 22.2751 24.9248 21.5501C24.7248 20.8501 24.5498 20.2001 24.3748 19.6001H24.3249C24.0998 20.6751 23.8249 21.7501 23.4748 22.8251C23.0998 24.0251 22.7248 25.2751 22.3249 26.5251C21.9748 27.8001 21.5998 28.9751 21.2248 30.0251Z" fill="black"/>
<path d="M42.4495 19.2501C41.6245 19.2751 40.8245 18.9501 40.2245 18.3751C39.6495 17.7501 39.3495 16.9251 39.3745 16.0751C39.3495 15.2251 39.6745 14.4251 40.2745 13.8501C40.8745 13.2751 41.6745 12.9751 42.4995 12.9751C43.4745 12.9751 44.2245 13.2751 44.7745 13.8501C45.3245 14.4501 45.6245 15.2501 45.5995 16.0751C45.6245 16.9251 45.3245 17.7501 44.7245 18.3751C44.1495 18.9751 43.2995 19.3001 42.4495 19.2501ZM39.6495 40.9501V21.7001C39.6495 21.4501 39.7495 21.3501 39.9745 21.3501H44.9245C45.1495 21.3501 45.2495 21.4751 45.2495 21.7001V40.9501C45.2495 41.2251 45.1495 41.3501 44.9245 41.3501H40.0245C39.7745 41.3501 39.6495 41.2001 39.6495 40.9501Z" fill="black"/>
</g>
<defs>
<clipPath id="clip0_521_289">
<rect width="60" height="58.5" fill="white"/>
</clipPath>
</defs>
</svg>
