<svg width="98" height="27" viewBox="0 0 98 27" fill="none" xmlns="http://www.w3.org/2000/svg">
<g clip-path="url(#clip0_521_265)">
<path fill-rule="evenodd" clip-rule="evenodd" d="M44.7598 20.3251H47.3973V9.17285H44.7598V20.3251Z" fill="#AAAAAA"/>
<path fill-rule="evenodd" clip-rule="evenodd" d="M65.7149 11.2694C65.0199 11.2512 64.3282 11.3715 63.6801 11.6233C63.032 11.8751 62.4404 12.2533 61.9399 12.7359C61.9399 12.6467 61.979 12.0556 61.8619 12.0556C61.1314 12.0556 60.0385 12.0277 59.2578 12.0556V20.2859C60.2671 20.2859 61.9399 20.2859 61.9399 20.2859C61.9399 18.6912 61.9399 16.8957 61.9399 15.2005C62.0459 14.4812 62.7652 13.405 64.6109 13.405C65.9213 13.2991 66.2279 14.3251 66.2279 15.4849V20.2859H68.8989C68.8989 19.5666 69.1833 15.2284 68.7985 13.5946C68.3357 11.537 66.306 11.3084 65.7149 11.2805V11.2694Z" fill="#AAAAAA"/>
<path fill-rule="evenodd" clip-rule="evenodd" d="M33.3564 8.40918L36.1055 9.1508V12.2344C36.9989 11.6677 38.0363 11.3696 39.0943 11.3757C41.8823 11.3757 44.1518 13.4054 44.1518 15.8812C44.1518 18.3569 41.8823 20.3866 39.0943 20.3866C38.0351 20.3897 36.9975 20.0877 36.1055 19.5168V20.2974H33.3564V8.40918ZM38.6816 13.4277C39.1713 13.4419 39.6458 13.6001 40.0461 13.8825C40.4463 14.1649 40.7545 14.559 40.9321 15.0155C41.1097 15.472 41.1488 15.9707 41.0446 16.4494C40.9404 16.928 40.6975 17.3653 40.3462 17.7067C39.9949 18.0481 39.5508 18.2784 39.0694 18.3688C38.5879 18.4592 38.0905 18.4058 37.6393 18.2152C37.1881 18.0246 36.803 17.7053 36.5322 17.2971C36.2614 16.889 36.1168 16.41 36.1166 15.9202C36.1284 15.2502 36.4047 14.6121 36.8852 14.1451C37.3658 13.6781 38.0116 13.4202 38.6816 13.4277Z" fill="#AAAAAA"/>
<path fill-rule="evenodd" clip-rule="evenodd" d="M80.2966 8.40918L77.5085 9.1508V12.2678C76.6194 11.6995 75.5861 11.3977 74.5309 11.398C71.7428 11.398 69.4678 13.4277 69.4678 15.9035C69.4678 18.3793 71.7428 20.409 74.5309 20.409C75.5841 20.4115 76.6165 20.1157 77.5085 19.5558V20.2974H80.2966V8.40918ZM74.9379 13.4277C74.45 13.4484 73.9789 13.6121 73.5832 13.8983C73.1875 14.1845 72.8846 14.5806 72.712 15.0375C72.5395 15.4944 72.505 15.9918 72.6128 16.4682C72.7207 16.9445 72.966 17.3786 73.3185 17.7167C73.6709 18.0548 74.1149 18.2819 74.5953 18.3698C75.0757 18.4576 75.5713 18.4025 76.0206 18.2111C76.4699 18.0197 76.8531 17.7006 77.1226 17.2933C77.3921 16.886 77.536 16.4086 77.5364 15.9202C77.5321 15.5851 77.4612 15.2542 77.3277 14.9468C77.1943 14.6394 77.0011 14.3617 76.7592 14.1297C76.5174 13.8977 76.2318 13.7162 75.9191 13.5957C75.6064 13.4751 75.2729 13.418 74.9379 13.4277Z" fill="#AAAAAA"/>
<path fill-rule="evenodd" clip-rule="evenodd" d="M91.2592 16.4441C91.2592 13.2601 89.9879 11.0631 85.789 11.2192C82.4768 11.2973 80.7705 13.0036 80.843 16.1262C81.1163 19.1819 82.8114 20.0797 85.6218 20.4923C88.0474 20.5815 89.7537 19.7451 90.3336 18.5909C89.7035 18.1392 88.9228 17.7433 88.3039 17.3083C87.6236 18.2563 87.0214 18.7581 85.9954 18.602C84.1943 18.3344 83.8987 17.4868 83.8374 16.4608H91.2592V16.4441ZM83.9489 14.6876C84.1051 13.7619 84.6181 13.0148 86.0846 12.8865C87.395 12.8865 88.2146 13.6839 88.2146 14.6876H83.9489Z" fill="#AAAAAA"/>
<path fill-rule="evenodd" clip-rule="evenodd" d="M58.5102 16.4441C58.5102 13.2601 57.2388 11.0631 53.04 11.2192C49.7278 11.2973 48.0215 13.0036 48.094 16.1262C48.3672 19.1819 50.0624 20.0797 52.8727 20.4923C55.2983 20.5815 57.0102 19.7451 57.5845 18.5909C56.9321 18.1671 56.2017 17.7154 55.5604 17.3083C54.8746 18.2563 54.2723 18.7581 53.2463 18.602C51.4508 18.3344 51.1553 17.4868 51.0884 16.4608H58.5102V16.4441ZM51.2055 14.6876C51.356 13.7619 51.8746 13.0148 53.3356 12.8865C54.6459 12.8865 55.4656 13.6839 55.4656 14.6876H51.2055Z" fill="#AAAAAA"/>
<path fill-rule="evenodd" clip-rule="evenodd" d="M92.2626 20.2971H94.7942C94.8444 20.2971 94.8667 20.2971 94.8667 20.2971V15.2786C95.4745 14.0797 96.4893 13.8232 97.9893 13.8901V11.5928C96.2272 11.6541 95.7142 11.8102 94.8778 12.708V12.0946C94.8778 12.0667 94.8778 12.0667 94.8053 12.0667H92.2626C92.2069 12.0667 92.1846 12.0667 92.1846 12.0946V20.2748C92.1846 20.2748 92.1846 20.2748 92.2626 20.2748V20.2971Z" fill="#AAAAAA"/>
<path fill-rule="evenodd" clip-rule="evenodd" d="M19.2655 5.86608H6.20631C3.85877 6.04452 4.22679 9.17829 5.96096 9.15041C7.56688 9.15041 10.2657 9.15041 12.1783 9.15041C9.4293 11.7433 3.29001 15.6744 0.607903 18.2283C-0.434828 19.2208 -0.367915 22.0981 2.64876 21.429C3.79186 20.7989 8.95533 16.5889 9.66349 15.8529C10.0371 24.8193 20.0741 28.9958 27.652 23.7654C31.6724 20.9773 33.0608 13.8789 29.8824 10.3827C27.4067 7.59468 22.8844 4.80662 17.4812 0.345743C16.6448 -0.379151 14.0686 2.42037e-05 14.9385 2.09106C16.2981 3.44123 17.7434 4.7022 19.2655 5.86608ZM20.5871 9.01101C24.3119 9.01101 27.3676 11.76 27.3676 15.1001C27.3676 18.4402 24.3119 21.1892 20.5871 21.1892C16.8622 21.1892 13.8065 18.4625 13.8065 15.1001C13.8065 11.7377 16.8399 9.01101 20.5871 9.01101Z" fill="#AAAAAA"/>
<path fill-rule="evenodd" clip-rule="evenodd" d="M20.8274 10.9741C21.9098 10.9455 22.9595 11.3465 23.7473 12.0893C24.535 12.8321 24.9968 13.8565 25.0318 14.9387C24.9954 16.0199 24.533 17.0429 23.7454 17.7845C22.9578 18.5261 21.9089 18.9263 20.8274 18.8977C19.746 18.9263 18.6971 18.5261 17.9095 17.7845C17.1219 17.0429 16.6595 16.0199 16.623 14.9387C16.658 13.8565 17.1198 12.8321 17.9076 12.0893C18.6953 11.3465 19.745 10.9455 20.8274 10.9741Z" fill="#AAAAAA"/>
</g>
<defs>
<clipPath id="clip0_521_265">
<rect width="98" height="26.0683" fill="white"/>
</clipPath>
</defs>
</svg>
