<svg width="21" height="21" viewBox="0 0 21 21" fill="none" xmlns="http://www.w3.org/2000/svg">
<path d="M20.4014 14.8809C20.7139 15.0371 20.9482 15.3887 20.9482 15.7793C20.9482 15.8184 20.9482 15.8965 20.9482 15.9746L20.0107 20.0371C19.8936 20.4668 19.542 20.7402 19.1123 20.7402C9.07324 20.7402 0.987305 12.6543 0.987305 2.61523C0.987305 2.18555 1.26074 1.83398 1.69043 1.7168L5.75293 0.779297C5.83105 0.779297 5.90918 0.740234 5.94824 0.740234C6.33887 0.740234 6.69043 0.974609 6.84668 1.32617L8.72168 5.70117C8.76074 5.81836 8.7998 5.93555 8.7998 6.05273C8.7998 6.36523 8.64355 6.63867 8.44824 6.79492L6.06543 8.74805C7.51074 11.7949 9.93262 14.2168 12.9795 15.6621L14.9326 13.2793C15.0889 13.084 15.3623 12.9277 15.6357 12.9277C15.792 12.9277 15.9092 12.9668 16.0264 13.0059L20.4014 14.8809Z" fill="#EC2555"/>
</svg>
