<svg width="50" height="75" viewBox="0 0 50 75" fill="none" xmlns="http://www.w3.org/2000/svg">
<g clip-path="url(#clip0_521_299)">
<path d="M12.5049 75C19.4049 75 25.0049 69.4 25.0049 62.5V50H12.5049C5.60488 50 0.00488281 55.6 0.00488281 62.5C0.00488281 69.4 5.60488 75 12.5049 75Z" fill="#AAAAAA"/>
<path d="M0.00488281 37.5C0.00488281 30.6 5.60488 25 12.5049 25H25.0049V50H12.5049C5.60488 50 0.00488281 44.4 0.00488281 37.5Z" fill="#9A9A9A"/>
<path d="M0.00488281 12.5C0.00488281 5.6 5.60488 0 12.5049 0H25.0049V25H12.5049C5.60488 25 0.00488281 19.4 0.00488281 12.5Z" fill="#AAAAAA"/>
<path d="M25.0049 0H37.5049C44.4049 0 50.0049 5.6 50.0049 12.5C50.0049 19.4 44.4049 25 37.5049 25H25.0049V0Z" fill="#9A9A9A"/>
<path d="M50.0049 37.5C50.0049 44.4 44.4049 50 37.5049 50C30.6049 50 25.0049 44.4 25.0049 37.5C25.0049 30.6 30.6049 25 37.5049 25C44.4049 25 50.0049 30.6 50.0049 37.5Z" fill="#AAAAAA"/>
</g>
<defs>
<clipPath id="clip0_521_299">
<rect width="50.01" height="75" fill="white"/>
</clipPath>
</defs>
</svg>
