<svg width="100" height="78" viewBox="0 0 100 78" fill="none" xmlns="http://www.w3.org/2000/svg">
<path d="M73.4531 33.9061H73.3906L65.0469 34.7082C64.8248 34.729 64.6406 34.8192 64.4948 34.979C64.4173 35.051 64.3553 35.138 64.3123 35.2347C64.2694 35.3314 64.2465 35.4357 64.245 35.5415L63.974 39.1978L56.7135 39.7186L56.2135 36.3332C56.1721 36.118 56.0679 35.9373 55.901 35.7915C55.7342 35.6457 55.5402 35.5728 55.3177 35.5728H46.5156C46.3004 35.5728 46.1094 35.6457 45.9427 35.7915C45.776 35.9373 45.6685 36.118 45.6198 36.3332L45.1406 39.7186L37.8594 39.1978L37.6094 35.5415C37.5923 35.3268 37.4957 35.1262 37.3385 34.979C37.1927 34.8192 37.0123 34.729 36.7969 34.7082L28.4427 33.9061H28.3698V20.3644C27.4531 19.2186 26.4079 17.7325 25.2344 15.9061C26.3942 13.9546 27.929 11.9513 29.8385 9.89567C31.3733 10.6665 32.8975 11.5486 34.4115 12.5415C34.7169 12.229 35.099 11.8921 35.5573 11.5311L36.7448 10.6144C37.0713 10.3644 37.4879 10.0832 37.9948 9.77067L39.2865 8.979C39.0433 7.229 38.901 5.36088 38.8594 3.37484C40.8108 2.39567 43.0921 1.61775 45.7031 1.0415C46.5781 2.5138 47.4252 4.15255 48.2448 5.95817L50.901 5.76025H50.9323L53.6094 5.95817C54.3944 4.20817 55.2346 2.56921 56.1304 1.0415C58.7415 1.61796 61.0298 2.39567 62.995 3.37484C62.9392 5.40255 62.7971 7.27067 62.5677 8.979L63.849 9.77067C64.349 10.0832 64.7621 10.3644 65.0885 10.6144L66.276 11.5311C66.7342 11.8921 67.1163 12.229 67.4219 12.5415C68.9356 11.5484 70.46 10.6665 71.9946 9.89567C73.9044 11.9373 75.4392 13.9409 76.599 15.9061C75.5573 17.5728 74.5121 19.0588 73.4635 20.3644V32.8332H73.4531V33.9061ZM57.7135 25.8644C57.7135 27.2394 58.2033 28.42 59.1823 29.4061C60.1685 30.3713 61.356 30.854 62.745 30.854C64.1271 30.854 65.3108 30.3713 66.2971 29.4061C67.2763 28.42 67.7658 27.2394 67.7658 25.8644C67.7658 24.4825 67.2763 23.3019 66.2971 22.3228C65.311 21.3505 64.1271 20.8644 62.745 20.8644C61.356 20.8644 60.1688 21.3505 59.1823 22.3228C58.2031 23.3019 57.7135 24.4825 57.7135 25.8644ZM28.3698 35.6978L35.849 36.4165L36.1198 40.1144C36.1338 40.3298 36.224 40.5173 36.3906 40.6769C36.5407 40.8285 36.7404 40.921 36.9531 40.9373L45.8281 41.5623C46.071 41.5761 46.2794 41.5103 46.4531 41.3644C46.6406 41.2186 46.7519 41.0311 46.7865 40.8019L47.2969 37.354H54.5469L55.0469 40.8019C55.0792 41.0129 55.1864 41.2052 55.349 41.3436C55.5156 41.4894 55.7135 41.5623 55.9427 41.5623H56.0052L64.8906 40.9373C65.1058 40.9165 65.2969 40.8296 65.4635 40.6769C65.6233 40.5171 65.7065 40.3296 65.7135 40.1144L65.9844 36.4165L73.4635 35.6978L73.4529 37.5623C73.4529 41.3403 71.2585 44.2707 66.8696 46.354C62.8417 48.2775 57.5292 49.2498 50.9321 49.2707H50.9008C44.3175 49.2498 39.005 48.2775 34.9633 46.354C30.5675 44.2707 28.3696 41.3403 28.3696 37.5623L28.3698 35.6978ZM50.9219 31.3228C51.3665 31.3228 51.7448 31.1769 52.0573 30.8853C52.3698 30.6075 52.526 30.2638 52.526 29.854V25.2498C52.526 24.8469 52.3698 24.5034 52.0573 24.2186C51.7448 23.9269 51.3665 23.7811 50.9219 23.7811C50.4704 23.7811 50.0885 23.9269 49.776 24.2186C49.4635 24.5034 49.3073 24.8471 49.3073 25.2498V29.854C49.3073 30.2638 49.4635 30.6075 49.776 30.8853C50.0885 31.1769 50.4704 31.3228 50.9219 31.3228ZM44.1198 25.8644C44.1198 24.4825 43.6302 23.3019 42.651 22.3228C41.6719 21.3505 40.4879 20.8644 39.099 20.8644C37.71 20.8644 36.5225 21.3505 35.5365 22.3228C34.5573 23.3019 34.0677 24.4825 34.0677 25.8644C34.0677 27.2394 34.5573 28.42 35.5365 29.4061C36.5225 30.3713 37.71 30.854 39.099 30.854C40.4879 30.854 41.6719 30.3713 42.651 29.4061C43.6302 28.42 44.1198 27.2394 44.1198 25.8644Z" fill="#AAAAAA"/>
<path d="M58.9326 26.1561C58.9326 25.2394 59.2555 24.4582 59.9012 23.8123C60.5541 23.1525 61.3387 22.8228 62.2553 22.8228C63.186 22.8228 63.9741 23.1525 64.6201 23.8123C65.266 24.4582 65.5887 25.2394 65.5887 26.1561C65.5887 27.0798 65.2657 27.8644 64.6201 28.5103C63.9745 29.1561 63.186 29.479 62.2553 29.479C61.3389 29.479 60.5541 29.1561 59.9012 28.5103C59.2555 27.8644 58.9326 27.0796 58.9326 26.1561ZM50.1305 71.3748C51.4778 71.3471 52.561 70.92 53.3805 70.0938C54.1793 69.2605 54.5784 68.153 54.5784 66.7709C54.5784 65.3959 54.1793 64.295 53.3805 63.4688C52.561 62.6355 51.4778 62.2188 50.1305 62.2188H47.443V71.3748H50.1305ZM50.3701 57.5728C52.2103 57.5728 53.8216 57.9511 55.2034 58.7082C56.5859 59.4726 57.7263 60.6094 58.4951 61.9894C59.2659 63.3715 59.662 64.965 59.6826 66.7707C59.6618 68.5832 59.2555 70.1769 58.4639 71.5519C57.693 72.9407 56.6026 74.0382 55.193 74.8436C53.8178 75.6213 52.2103 76.0207 50.3701 76.0415H43.9014C42.9082 75.979 42.4293 75.4998 42.4639 74.604V59.0103C42.4291 58.0171 42.9082 57.5382 43.9014 57.5728H50.3701ZM87.7347 62.2707H82.568C81.7487 62.2148 81.3145 61.7809 81.266 60.9686V59.104C81.2314 58.2986 81.6653 57.8644 82.568 57.8019H97.891C98.7312 57.8644 99.1651 58.2465 99.193 58.9478V59.104V60.9686C99.1445 61.7809 98.7103 62.2148 97.891 62.2707H92.7139V74.3957C92.7349 75.3263 92.2589 75.8019 91.2868 75.823H89.1618C88.127 75.8438 87.6514 75.368 87.7347 74.3957V62.2707ZM70.818 71.4582C71.7276 71.4582 72.5368 71.2534 73.2449 70.8436C73.9532 70.4269 74.5089 69.854 74.9116 69.1248C75.3074 68.4167 75.5157 67.5971 75.5366 66.6665C75.5157 65.7082 75.3074 64.8678 74.9116 64.1457C74.5089 63.4234 73.9532 62.8609 73.2449 62.458C72.5368 62.0484 71.7276 61.8434 70.818 61.8434C69.8874 61.8434 69.0751 62.0484 68.3805 62.458C67.6722 62.8609 67.1062 63.4338 66.6826 64.1767C66.287 64.8782 66.0889 65.7082 66.0889 66.6663C66.0889 67.5969 66.2868 68.4163 66.6826 69.1246C67.1062 69.8538 67.6722 70.4163 68.3805 70.8123C69.0751 71.243 69.8874 71.4582 70.818 71.4582ZM70.818 76.0415C68.8805 76.0346 67.1791 75.6284 65.7139 74.8228C64.2207 74.0171 63.0576 72.9165 62.2243 71.5205C61.377 70.1107 60.9501 68.4928 60.943 66.6663C60.9501 64.805 61.377 63.1698 62.2243 61.76C63.0576 60.3642 64.2207 59.2636 65.7139 58.4578C67.1791 57.6592 68.8805 57.2598 70.818 57.2598C72.7624 57.2598 74.4707 57.6592 75.943 58.4578C77.4151 59.2634 78.5682 60.364 79.4016 61.76C80.2139 63.1698 80.6376 64.805 80.6724 66.6663C80.6376 68.4928 80.2141 70.1142 79.4016 71.5309C78.5682 72.9407 77.4153 74.038 75.943 74.8228C74.4707 75.6284 72.7624 76.0346 70.818 76.0415ZM42.9118 26.1561C42.9118 27.0798 42.5889 27.8644 41.943 28.5103C41.2903 29.1561 40.502 29.479 39.5784 29.479C38.6618 29.479 37.8735 29.1561 37.2139 28.5103C36.568 27.8644 36.2451 27.0796 36.2451 26.1561C36.2451 25.2394 36.568 24.4582 37.2139 23.8123C37.8737 23.1525 38.6618 22.8228 39.5784 22.8228C40.502 22.8228 41.2903 23.1525 41.943 23.8123C42.5889 24.4582 42.9118 25.2394 42.9118 26.1561ZM18.7243 71.2394C17.9395 72.7186 16.832 73.8921 15.4014 74.76C13.9707 75.6073 12.3112 76.0344 10.4222 76.0413C8.57491 76.0344 6.9222 75.6282 5.46387 74.8225C4.03324 74.0171 2.90491 72.9165 2.07845 71.5207C1.23116 70.1109 0.807617 68.493 0.807617 66.6665C0.807617 64.8194 1.22074 63.1942 2.0472 61.7915C2.8597 60.389 3.99158 59.2882 5.44303 58.4894C6.86658 57.6698 8.51241 57.2603 10.3805 57.2603C11.9639 57.2603 13.4187 57.5623 14.7451 58.1667C15.4466 58.4792 16.0889 58.8575 16.6722 59.3021C17.207 59.7882 17.2207 60.3021 16.7139 60.8436L14.9535 62.5936C14.4603 63.045 13.8424 63.0623 13.0993 62.6457L12.9326 62.5311C12.1895 62.0934 11.3528 61.8748 10.4222 61.8748C9.51241 61.8748 8.72428 62.0728 8.05762 62.4686C7.37699 62.8644 6.83887 63.4236 6.44303 64.1459C6.08199 64.868 5.90137 65.7084 5.90137 66.6667C5.90137 67.618 6.08199 68.4375 6.44303 69.125C6.83887 69.8542 7.36658 70.4167 8.02637 70.8128C8.70699 71.2084 9.50553 71.4065 10.4222 71.4065C11.3805 71.4065 12.2314 71.205 12.9743 70.8023C13.7035 70.3928 14.2207 69.8338 14.5264 69.1253H11.0368C10.377 69.0211 10.0368 68.6878 10.016 68.1253V66.2086C10.0507 65.5211 10.391 65.1844 11.0368 65.1982H17.7347C19.3876 65.2259 20.1028 65.9342 19.8805 67.3232C19.7347 68.774 19.3493 70.0798 18.7243 71.2394ZM31.0472 71.4582C31.957 71.4582 32.7659 71.2534 33.4743 70.8436C34.1826 70.4269 34.7347 69.854 35.1305 69.1248C35.5264 68.4167 35.7347 67.5971 35.7555 66.6665C35.7347 65.7082 35.5264 64.8678 35.1305 64.1457C34.7347 63.4236 34.1826 62.8609 33.4743 62.458C32.7659 62.0484 31.9568 61.8434 31.0472 61.8434C30.1168 61.8434 29.3007 62.0484 28.5993 62.458C27.8909 62.8609 27.3284 63.4338 26.9118 64.1767C26.5159 64.8782 26.318 65.7082 26.318 66.6663C26.318 67.5969 26.5159 68.4163 26.9118 69.1246C27.3284 69.8538 27.8909 70.4163 28.5993 70.8123C29.3007 71.243 30.1166 71.4582 31.0472 71.4582ZM31.0472 76.0415C29.1028 76.0346 27.4014 75.6284 25.943 74.8228C24.4499 74.0171 23.2868 72.9165 22.4535 71.5205C21.6064 70.1107 21.1757 68.4928 21.1618 66.6663C21.1755 64.805 21.6062 63.1698 22.4535 61.76C23.2868 60.3642 24.4499 59.2636 25.943 58.4578C27.4014 57.6592 29.1028 57.2598 31.0472 57.2598C32.9916 57.2598 34.7001 57.6592 36.1722 58.4578C37.6376 59.2634 38.7903 60.364 39.6305 61.76C40.443 63.1698 40.8668 64.805 40.9014 66.6663C40.8666 68.4928 40.443 70.1142 39.6305 71.5309C38.7903 72.9407 37.6376 74.038 36.1722 74.8228C34.6999 75.6284 32.9916 76.0346 31.0472 76.0415Z" fill="#989797"/>
</svg>
