<svg width="91" height="73" viewBox="0 0 91 73" fill="none" xmlns="http://www.w3.org/2000/svg">
<g clip-path="url(#clip0_521_322)">
<path d="M60.3326 20.1347L68.2184 12.249L68.7439 8.92852C54.3739 -4.13813 31.5309 -2.65651 18.577 12.02C14.9787 16.0963 12.3092 21.1783 10.8857 26.4262L13.7101 26.0282L29.4813 23.4275L30.6989 22.1823C37.7143 14.4776 49.5761 13.441 57.6763 19.9965L60.3326 20.1347Z" fill="#AAAAAA"/>
<path d="M79.4514 26.1948C77.6388 19.5199 73.9176 13.5193 68.7434 8.9292L57.6758 19.9969C62.3492 23.8155 65.0116 29.5684 64.8975 35.6022V37.5668C70.3374 37.5668 74.7479 41.9769 74.7479 47.4169C74.7479 52.8571 70.3374 57.1567 64.8975 57.1567H45.1694L43.2324 59.2595V71.0742L45.1694 72.9279H64.8975C79.0474 73.0381 90.6077 61.7674 90.7179 47.6174C90.7845 39.0406 86.5558 31 79.4514 26.1948Z" fill="#AAAAAA"/>
<path d="M25.4691 72.9278H45.1695V57.1562H25.4691C24.0654 57.1559 22.7061 56.8543 21.4296 56.271L18.6347 57.1286L10.6937 65.0143L10.002 67.6983C14.4553 71.0609 19.8888 72.9518 25.4691 72.9278Z" fill="#AAAAAA"/>
<path d="M25.4686 21.7677C11.3183 21.8521 -0.0838749 33.3918 0.000464882 47.5417C0.047596 55.4434 3.73799 62.8816 10.0015 67.6986L21.4292 56.2712C16.4712 54.0313 14.2681 48.1966 16.508 43.239C18.7476 38.2813 24.5827 36.0782 29.5399 38.3178C31.7246 39.3048 33.4742 41.0546 34.4611 43.239L45.8888 31.8116C41.0265 25.4553 33.4713 21.739 25.4686 21.7677Z" fill="#AAAAAA"/>
</g>
<defs>
<clipPath id="clip0_521_322">
<rect width="90.7184" height="73" fill="white"/>
</clipPath>
</defs>
</svg>
