<svg width="21" height="16" viewBox="0 0 21 16" fill="none" xmlns="http://www.w3.org/2000/svg">
<path d="M20.5967 5.06104C20.7529 4.94385 20.9873 5.06104 20.9873 5.25635V13.2251C20.9873 14.2798 20.1279 15.1001 19.1123 15.1001H2.8623C1.80762 15.1001 0.987305 14.2798 0.987305 13.2251V5.25635C0.987305 5.06104 1.18262 4.94385 1.33887 5.06104C2.2373 5.76416 3.37012 6.62354 7.35449 9.51416C8.1748 10.1001 9.58105 11.3892 10.9873 11.3892C12.3545 11.3892 13.7998 10.1001 14.5811 9.51416C18.5654 6.62354 19.6982 5.76416 20.5967 5.06104ZM10.9873 10.1001C10.0498 10.1392 8.76074 8.96729 8.09668 8.49854C2.90137 4.74854 2.51074 4.39697 1.33887 3.45947C1.10449 3.30322 0.987305 3.02979 0.987305 2.71729V1.9751C0.987305 0.959473 1.80762 0.100098 2.8623 0.100098H19.1123C20.1279 0.100098 20.9873 0.959473 20.9873 1.9751V2.71729C20.9873 3.02979 20.8311 3.30322 20.5967 3.45947C19.4248 4.39697 19.0342 4.74854 13.8389 8.49854C13.1748 8.96729 11.8857 10.1392 10.9873 10.1001Z" fill="#EC2555"/>
</svg>
