<svg width="68" height="74" viewBox="0 0 68 74" fill="none" xmlns="http://www.w3.org/2000/svg">
<g clip-path="url(#clip0_521_332)">
<path d="M30.5719 0.939375C32.3988 -0.106335 34.7784 -0.111058 36.6037 0.939375C45.7868 6.1283 54.9728 11.3091 64.1543 16.5012C65.8812 17.4739 67.0363 19.3958 67.0188 21.3857V52.6042C67.0316 54.6765 65.7623 56.6443 63.9404 57.595C54.7875 62.7554 45.6393 67.922 36.488 73.0823C34.6233 74.1485 32.196 74.0663 30.3895 72.9128C27.6455 71.322 24.8967 69.7392 22.1524 68.15C21.5917 67.8157 20.9595 67.5496 20.5635 67.0059C20.9136 66.5341 21.5394 66.4753 22.048 66.2693C23.1934 65.9051 24.2454 65.3204 25.2977 64.7531C25.5638 64.571 25.8887 64.6408 26.1437 64.8037C28.4902 66.1491 30.816 67.5336 33.1703 68.8661C33.6726 69.1561 34.1811 68.7711 34.6104 68.5318C43.5922 63.4555 52.5851 58.3983 61.5653 53.3204C61.8981 53.1603 62.082 52.8071 62.055 52.4426C62.0613 42.1443 62.0566 31.8441 62.0581 21.5458C62.0962 21.1322 61.8569 20.752 61.4829 20.5827C52.3618 15.446 43.2453 10.3014 34.1257 5.16341C33.9677 5.05479 33.7806 4.9965 33.5888 4.99622C33.3971 4.99594 33.2098 5.05367 33.0514 5.16184C23.9319 10.3014 14.817 15.4507 5.69741 20.5872C5.32478 20.7567 5.07471 21.1306 5.11905 21.5458C5.12063 31.8441 5.11905 42.1443 5.11905 52.4442C5.10324 52.622 5.1423 52.8004 5.23097 52.9554C5.31965 53.1104 5.45368 53.2344 5.61501 53.3109C8.04861 54.6909 10.4854 56.0612 12.9205 57.4365C14.2924 58.175 15.9768 58.6137 17.4883 58.048C18.8222 57.5696 19.7571 56.2085 19.7317 54.7922C19.7443 44.554 19.7254 34.3142 19.7411 24.0775C19.7078 23.623 20.139 23.2475 20.5809 23.2903C21.7502 23.2824 22.921 23.2745 24.0903 23.2934C24.5784 23.2824 24.9143 23.7718 24.854 24.2297C24.8492 34.5328 24.8666 44.8361 24.8461 55.1391C24.8492 57.885 23.7211 60.8728 21.1813 62.2164C18.0523 63.8373 14.1848 63.4935 11.0936 61.9393C8.41757 60.6036 5.86378 59.0273 3.2352 57.5963C1.40856 56.6509 0.145571 54.6752 0.158429 52.6045V21.3857C0.139273 19.3546 1.34033 17.3978 3.12105 16.4392C12.2724 11.2747 21.4221 6.10625 30.5719 0.939375Z" fill="#AAAAAA"/>
<path d="M38.5555 22.5646C42.5468 22.3077 46.8196 22.4125 50.4113 24.3787C53.192 25.8855 54.7337 29.0478 54.7828 32.1372C54.7051 32.5539 54.2695 32.7837 53.8717 32.7551C52.7137 32.7536 51.5554 32.7709 50.3974 32.7473C49.9061 32.7662 49.6206 32.3132 49.559 31.8789C49.2262 30.4008 48.4201 28.9368 47.0288 28.2238C44.893 27.1545 42.4166 27.2083 40.0877 27.2306C38.3876 27.3209 36.5594 27.4681 35.119 28.4679C34.0132 29.2252 33.6773 30.754 34.072 31.9852C34.4441 32.8693 35.4646 33.1545 36.2996 33.4175C41.1096 34.6755 46.2067 34.5503 50.9248 36.2058C52.8782 36.8808 54.7891 38.1928 55.4577 40.2381C56.3323 42.9792 55.9489 46.2557 53.9987 48.4563C52.4171 50.2672 50.1137 51.2528 47.8163 51.7881C44.76 52.4696 41.5882 52.4869 38.4844 52.1843C35.5659 51.8516 32.5287 51.0848 30.2757 49.0963C28.349 47.4234 27.408 44.8169 27.5014 42.3011C27.5238 41.8763 27.9468 41.58 28.3538 41.6149C29.5199 41.6055 30.6861 41.6023 31.8522 41.6165C32.318 41.5832 32.6633 41.9857 32.6872 42.4247C32.9024 43.8331 33.4317 45.3113 34.6598 46.1462C37.0299 47.6753 40.0038 47.5706 42.7176 47.6134C44.966 47.5137 47.4898 47.4835 49.3246 45.9975C50.2927 45.1499 50.5795 43.7318 50.3179 42.5118C50.0345 41.4819 48.957 41.0019 48.0317 40.6881C43.2834 39.186 38.1294 39.7311 33.427 38.0325C31.5179 37.3578 29.6719 36.0822 28.9384 34.121C27.915 31.3452 28.3839 27.9118 30.5386 25.7855C32.6395 23.6705 35.6721 22.8562 38.5555 22.5646Z" fill="#AAAAAA"/>
</g>
<defs>
<clipPath id="clip0_521_332">
<rect width="67.192" height="74" fill="white"/>
</clipPath>
</defs>
</svg>
