<svg width="138" height="41" viewBox="0 0 138 41" fill="none" xmlns="http://www.w3.org/2000/svg">
<path d="M136.739 36.1586C136.739 38.3291 134.989 40.0844 132.834 40.0844H4.82476C2.66558 40.0844 0.910693 38.3291 0.90625 36.1586V4.84581C0.90625 2.67522 2.66114 0.915527 4.82476 0.915527H132.825C134.984 0.915527 136.735 2.67522 136.735 4.84581V36.163L136.739 36.1586Z" fill="white"/>
<path d="M132.83 41H4.82483C2.16362 41 0.00444276 38.8339 0 36.1586V4.84586C0 2.17059 2.16362 0 4.82483 0H132.825C135.486 0 137.645 2.17059 137.65 4.84586V36.1631C137.65 38.8339 135.482 41.0045 132.825 41.0045L132.83 41Z" fill="#A6A5A5"/>
<path d="M136.739 36.1586C136.739 38.3291 134.989 40.0844 132.834 40.0844H4.82476C2.66558 40.0844 0.910693 38.3291 0.90625 36.1586V4.84581C0.90625 2.67522 2.66114 0.915527 4.82476 0.915527H132.825C134.984 0.915527 136.735 2.67522 136.735 4.84581V36.163L136.739 36.1586Z" fill="#010101"/>
<path opacity="0.1" d="M132.83 0H64.269L91.1255 41H132.834C135.495 41 137.655 38.8294 137.659 36.1586V4.84586C137.655 2.17059 135.495 0.00446623 132.834 0H132.83Z" fill="white"/>
<path d="M48.6394 12.3938C48.6394 13.1977 48.4395 13.8989 47.9419 14.3991C47.3421 15.0021 46.6446 15.3013 45.7472 15.3013C44.8498 15.3013 44.1522 15.0021 43.5525 14.3991C42.9527 13.7962 42.655 13.095 42.655 12.1928C42.655 11.2906 42.9527 10.5894 43.5525 9.98648C44.1522 9.38354 44.8498 9.0843 45.7472 9.0843C46.147 9.0843 46.5469 9.18256 46.9423 9.38354C47.3421 9.58452 47.6398 9.7855 47.8397 10.0847L47.3421 10.585C46.9423 10.0847 46.4447 9.88376 45.7472 9.88376C45.1474 9.88376 44.5521 10.0847 44.1522 10.585C43.6546 10.9869 43.4547 11.5854 43.4547 12.2866C43.4547 12.9878 43.6546 13.5907 44.1522 13.9882C44.6498 14.3857 45.1474 14.6894 45.7472 14.6894C46.4447 14.6894 46.9423 14.4884 47.4399 13.9882C47.7375 13.689 47.9375 13.287 47.9375 12.7868H45.7427V11.9829H48.635V12.3848L48.6394 12.3938ZM53.2243 9.88822H50.532V11.7908H53.0244V12.492H50.532V14.3946H53.2243V15.1986H49.7368V9.18702H53.2243V9.88822ZM56.5164 15.1986H55.7167V9.88822H54.024V9.18702H58.2091V9.88822H56.5164V15.1986ZM61.1014 15.1986V9.18702H61.9011V15.1986H61.1014ZM65.2864 15.1986H64.4867V9.88822H62.794V9.18702H66.8814V9.88822H65.1887V15.1986H65.2864ZM74.7584 14.3946C74.1586 14.9976 73.4611 15.2968 72.5637 15.2968C71.6662 15.2968 70.9687 14.9976 70.3689 14.3946C69.7692 13.7917 69.4715 13.0905 69.4715 12.1883C69.4715 11.2862 69.7692 10.585 70.3689 9.98201C70.9687 9.37907 71.6662 9.07983 72.5637 9.07983C73.4611 9.07983 74.1586 9.37907 74.7584 9.98201C75.3582 10.585 75.6558 11.2862 75.6558 12.1883C75.6558 13.0905 75.3582 13.7917 74.7584 14.3946ZM70.9687 13.8944C71.3686 14.2964 71.9639 14.5956 72.5637 14.5956C73.1634 14.5956 73.7588 14.3946 74.1586 13.8944C74.5585 13.4925 74.8561 12.894 74.8561 12.1928C74.8561 11.4916 74.6562 10.8887 74.1586 10.4912C73.7588 10.0892 73.1634 9.78996 72.5637 9.78996C71.9639 9.78996 71.3686 9.99095 70.9687 10.4912C70.5689 10.8931 70.2712 11.4916 70.2712 12.1928C70.2712 12.894 70.4711 13.4969 70.9687 13.8944ZM76.7532 15.1986V9.18702H77.6506L80.5429 13.8989V9.18702H81.3426V15.1986H80.5429L77.4507 10.2857V15.1986H76.7532Z" fill="white"/>
<path d="M69.2758 22.7152C66.8811 22.7152 64.9885 24.5196 64.9885 27.0251C64.9885 29.5307 66.8811 31.335 69.2758 31.335C71.6704 31.335 73.5631 29.5307 73.5631 27.0251C73.5631 24.5196 71.6704 22.7152 69.2758 22.7152ZM69.2758 29.5307C67.9785 29.5307 66.8811 28.4275 66.8811 26.9269C66.8811 25.4262 67.9785 24.3231 69.2758 24.3231C70.5731 24.3231 71.6704 25.3235 71.6704 26.9269C71.6704 28.432 70.5731 29.5307 69.2758 29.5307ZM60.0038 22.7152C57.6091 22.7152 55.7165 24.5196 55.7165 27.0251C55.7165 29.5307 57.6091 31.335 60.0038 31.335C62.3984 31.335 64.291 29.5307 64.291 27.0251C64.291 24.5196 62.3984 22.7152 60.0038 22.7152ZM60.0038 29.5307C58.7065 29.5307 57.6091 28.4275 57.6091 26.9269C57.6091 25.4262 58.7065 24.3231 60.0038 24.3231C61.301 24.3231 62.3984 25.3235 62.3984 26.9269C62.3984 28.432 61.301 29.5307 60.0038 29.5307ZM48.9369 24.0194V25.8237H53.2241C53.1264 26.8242 52.7265 27.6281 52.2289 28.1283C51.6292 28.7312 50.634 29.4324 48.9369 29.4324C46.2445 29.4324 44.2497 27.3288 44.2497 24.6223C44.2497 21.9158 46.3423 19.8122 48.9369 19.8122C50.3319 19.8122 51.4292 20.4151 52.2289 21.1163L53.5262 19.8122C52.4289 18.8117 51.0338 18.0078 49.039 18.0078C45.4493 18.0078 42.3616 21.0136 42.3616 24.6223C42.3616 28.231 45.4537 31.2368 49.039 31.2368C51.0338 31.2368 52.4289 30.6338 53.624 29.3342C54.8191 28.1328 55.2189 26.4267 55.2189 25.127C55.2189 24.725 55.2189 24.3231 55.1212 24.0238H48.9413L48.9369 24.0194ZM94.1997 25.4218C93.7998 24.4213 92.8046 22.7152 90.6099 22.7152C88.4152 22.7152 86.6203 24.4169 86.6203 27.0251C86.6203 29.4324 88.4152 31.335 90.8054 31.335C92.698 31.335 93.8976 30.1336 94.293 29.4324L92.8979 28.432C92.4003 29.1332 91.8006 29.6334 90.8054 29.6334C89.8102 29.6334 89.2104 29.2315 88.7129 28.3293L94.3951 25.922L94.1952 25.4218H94.1997ZM88.4152 26.8242C88.4152 25.2208 89.7125 24.3186 90.6099 24.3186C91.3074 24.3186 92.0049 24.7206 92.2049 25.2208L88.4152 26.8242ZM83.7281 30.9331H85.6207V18.4053H83.7281V30.9331ZM80.7381 23.6174C80.2405 23.1172 79.4408 22.617 78.4456 22.617C76.3531 22.617 74.3583 24.5196 74.3583 26.9269C74.3583 29.3342 76.2509 31.1341 78.4456 31.1341C79.4408 31.1341 80.2405 30.6338 80.6404 30.1336H80.7381V30.7366C80.7381 32.3399 79.8407 33.2421 78.4456 33.2421C77.3483 33.2421 76.553 32.4382 76.3531 31.737L74.7582 32.4382C75.2557 33.5414 76.4508 34.9438 78.5478 34.9438C80.6448 34.9438 82.5374 33.6396 82.5374 30.5356V22.9207H80.7426V23.6219L80.7381 23.6174ZM78.5434 29.5307C77.2461 29.5307 76.1487 28.4275 76.1487 26.9269C76.1487 25.4262 77.2461 24.3231 78.5434 24.3231C79.8407 24.3231 80.8358 25.4262 80.8358 26.9269C80.8358 28.4275 79.8407 29.5307 78.5434 29.5307ZM102.867 18.4053H98.3803V30.9331H100.273V26.2212H102.863C104.956 26.2212 106.95 24.7161 106.95 22.3133C106.95 19.9104 104.956 18.4053 102.863 18.4053H102.867ZM102.965 24.4169H100.273V20.1069H102.965C104.36 20.1069 105.16 21.3084 105.16 22.2105C105.062 23.3137 104.263 24.4169 102.965 24.4169ZM114.432 22.6125C113.037 22.6125 111.642 23.2154 111.14 24.5151L112.833 25.2163C113.232 24.5151 113.828 24.3141 114.525 24.3141C115.52 24.3141 116.418 24.9171 116.52 25.9175V26.0158C116.222 25.8148 115.423 25.5155 114.627 25.5155C112.833 25.5155 111.038 26.516 111.038 28.3203C111.038 30.022 112.535 31.1251 114.13 31.1251C115.427 31.1251 116.022 30.5222 116.525 29.9237H116.622V30.9242H118.417V26.114C118.217 23.9077 116.525 22.608 114.428 22.608L114.432 22.6125ZM114.232 29.5262C113.632 29.5262 112.735 29.227 112.735 28.4231C112.735 27.4226 113.832 27.1189 114.73 27.1189C115.529 27.1189 115.925 27.3199 116.422 27.5209C116.222 28.7223 115.227 29.5262 114.228 29.5262H114.232ZM124.699 22.9117L122.607 28.3248H122.509L120.314 22.9117H118.319L121.611 30.5267L119.719 34.7338H121.611L126.694 22.9073H124.699V22.9117ZM107.95 30.9286H109.843V18.4008H107.95V30.9286Z" fill="white"/>
<path d="M14.8166 8.32052C14.5189 8.61975 14.4167 9.12444 14.4167 9.72291V31.871C14.4167 32.4739 14.6167 32.9741 14.9143 33.2733L15.0121 33.3716L27.3763 20.9421V20.7411L14.8166 8.31158V8.32052Z" fill="url(#paint0_linear_101_1025)"/>
<path d="M31.3659 25.1582L27.2786 21.0493V20.75L31.3659 16.6411L31.4636 16.7394L36.3507 19.5442C37.7457 20.3481 37.7457 21.6478 36.3507 22.4517L31.3659 25.1582Z" fill="url(#paint1_linear_101_1025)"/>
<path d="M31.4637 25.0555L27.2786 20.8483L14.8167 33.376C15.3142 33.8763 16.0118 33.8763 16.9092 33.4743L31.4637 25.0555Z" fill="url(#paint2_linear_101_1025)"/>
<path d="M31.4637 16.6367L16.9092 8.31608C16.0118 7.81586 15.3142 7.91412 14.8167 8.41434L27.2786 20.8439L31.4637 16.6367Z" fill="url(#paint3_linear_101_1025)"/>
<defs>
<linearGradient id="paint0_linear_101_1025" x1="20.8943" y1="8.24906" x2="20.8943" y2="33.1885" gradientUnits="userSpaceOnUse">
<stop stop-color="#267CAF"/>
<stop offset="0.29" stop-color="#4A92B4"/>
<stop offset="0.77" stop-color="#79BCBA"/>
<stop offset="1" stop-color="#88CEBC"/>
</linearGradient>
<linearGradient id="paint1_linear_101_1025" x1="33.7294" y1="17.8381" x2="30.6772" y2="24.7042" gradientUnits="userSpaceOnUse">
<stop stop-color="#F48879"/>
<stop offset="0.12" stop-color="#F5907A"/>
<stop offset="0.71" stop-color="#FBB777"/>
<stop offset="1" stop-color="#FDC874"/>
</linearGradient>
<linearGradient id="paint2_linear_101_1025" x1="29.229" y1="23.068" x2="15.5552" y2="34.0648" gradientUnits="userSpaceOnUse">
<stop stop-color="#EB413D"/>
<stop offset="0.17" stop-color="#D94452"/>
<stop offset="0.57" stop-color="#AF487A"/>
<stop offset="0.86" stop-color="#954B92"/>
<stop offset="1" stop-color="#894A9C"/>
</linearGradient>
<linearGradient id="paint3_linear_101_1025" x1="16.5804" y1="8.92349" x2="29.6526" y2="18.8569" gradientUnits="userSpaceOnUse">
<stop stop-color="#54C0AC"/>
<stop offset="1" stop-color="#DDE79A"/>
</linearGradient>
</defs>
</svg>
