<svg width="76" height="75" viewBox="0 0 76 75" fill="none" xmlns="http://www.w3.org/2000/svg">
<g clip-path="url(#clip0_521_328)">
<path d="M37.3277 0.0209961C18.2594 0.0209975 19.4501 8.29017 19.4501 8.29017L19.4714 16.8569H37.6678V19.4291H12.2438C12.2438 19.4291 0.0419922 18.0453 0.0419922 37.2854C0.0419908 56.5255 10.692 55.8432 10.692 55.8432H17.048V46.9151C17.048 46.9151 16.7054 36.2651 27.528 36.2651H45.5756C45.5756 36.2651 55.7154 36.429 55.7154 26.4653V9.99077C55.7154 9.99077 57.2549 0.0209961 37.3277 0.0209961ZM27.2941 5.78178C29.1045 5.78178 30.5678 7.24503 30.5678 9.05544C30.5678 10.8659 29.1045 12.3291 27.2941 12.3291C25.4837 12.3291 24.0205 10.8659 24.0205 9.05544C24.0205 7.24503 25.4837 5.78178 27.2941 5.78178Z" fill="#AAAAAA"/>
<path d="M37.8694 74.7427C56.9378 74.7427 55.747 66.4735 55.747 66.4735L55.7257 57.9068H37.5293V55.3346H62.9533C62.9533 55.3346 75.1551 56.7184 75.1551 37.4783C75.1551 18.2382 64.5051 18.9205 64.5051 18.9205H58.1491V27.8486C58.1491 27.8486 58.4917 38.4986 47.6691 38.4986H29.6215C29.6215 38.4986 19.4817 38.3347 19.4817 48.2984V64.7729C19.4817 64.7729 17.9422 74.7427 37.8694 74.7427ZM47.903 68.9819C46.0926 68.9819 44.6293 67.5187 44.6293 65.7083C44.6293 63.8979 46.0926 62.4346 47.903 62.4346C49.7134 62.4346 51.1766 63.8979 51.1766 65.7083C51.1766 67.5187 49.7134 68.9819 47.903 68.9819Z" fill="#989797"/>
</g>
<defs>
<clipPath id="clip0_521_328">
<rect width="75.2941" height="75" fill="white"/>
</clipPath>
</defs>
</svg>
