<svg width="68" height="74" viewBox="0 0 68 74" fill="none" xmlns="http://www.w3.org/2000/svg">
<path fill-rule="evenodd" clip-rule="evenodd" d="M67.2752 66.3726H59.1558V57.9632H61.6931V64.4152H67.2752V66.3726ZM13.9956 30.5455C15.2122 28.5416 15.9866 27.0898 17.5094 25.2156C18.5836 23.8933 21.0228 21.3025 22.912 21.3025C23.5091 21.3025 24.2169 21.8229 24.2169 22.3899V35.149C24.2033 36.6604 22.4265 36.4758 21.5345 36.1639C21.9354 36.9213 23.1194 37.9719 23.7719 38.4938C26.5987 40.7544 30.3622 41.6486 33.8697 42.1467L37.6692 38.1122C37.8871 38.2518 41.1581 41.0242 41.2532 41.1661C45.119 38.9687 49.0833 34.218 50.7499 30.4368C50.1298 30.8521 49.0624 32.3606 46.8848 33.5312C45.9309 34.044 44.323 34.4876 43.6188 33.3963C43.6188 28.4466 43.3717 23.3547 43.5679 18.4701C43.5877 17.9775 43.8768 17.612 44.0889 17.2739C45.107 15.651 46.3807 14.1521 47.5644 12.6571C47.826 12.3269 48.0258 12.1179 48.2942 11.7649C43.857 12.6826 41.1588 14.5528 38.6608 16.7528C38.4783 16.9377 38.3411 17.1054 38.1359 17.2428C37.0242 16.6546 36.3679 16.5904 34.9462 16.5904C35.8954 17.3717 36.5239 18.0744 36.8471 19.329C37.1471 20.4944 36.976 22.4853 36.976 23.9123V33.2642C36.5017 33.3908 33.378 36.5139 31.2731 34.4089C30.6628 33.7987 30.7663 33.567 30.7664 32.4282L30.6939 17.4376C30.5353 17.519 30.0608 17.8598 29.4872 17.5972C28.5498 17.1679 28.6164 15.5899 28.6164 14.719C28.6164 13.7796 29.4499 12.4812 29.9178 11.9607C31.1441 10.5968 31.0731 10.804 32.0159 10.1413C31.3521 10.1965 29.1971 11.0797 28.5972 11.3288C24.5535 13.006 18.3944 18.3649 15.6686 23.3081C14.3519 25.6959 13.7462 28.2241 13.9956 30.5455ZM33.4472 52.2879C47.8861 52.2879 59.5911 40.5829 59.5911 26.144C59.5911 11.705 47.8861 0 33.4472 0C19.0083 0 7.30322 11.705 7.30322 26.144C7.30322 40.5829 19.0083 52.2879 33.4472 52.2879ZM33.4472 48.8903C46.0095 48.8903 56.1935 38.7064 56.1935 26.144C56.1935 13.5816 46.0095 3.39768 33.4472 3.39768C20.8847 3.39768 10.7008 13.5816 10.7008 26.144C10.7008 38.7064 20.8847 48.8903 33.4472 48.8903ZM5.11086 66.4538C3.12084 66.4396 0 66.611 0 63.8729V57.9632H2.53728V62.8029C2.53728 63.9629 2.74592 64.4978 4.32287 64.4978H6.04386C7.6208 64.4978 7.82944 63.9629 7.82944 62.8029V57.9632H10.3667V63.8729C10.3667 66.611 7.24595 66.4396 5.25587 66.4538H5.11086ZM23.1259 66.3726H19.3561L14.499 60.111V66.3726H12.0341V57.9632H15.8764L20.661 64.1314V57.9632H23.1259V66.3726ZM34.826 66.3726H32.3327V65.553C32.3327 64.5246 32.0883 64.0466 30.326 64.0489L27.3328 64.0528V66.3726H24.7932V57.9632H31.385C34.2249 57.9632 34.8348 58.5018 34.8231 60.8657C34.814 62.7103 33.8883 62.8671 33.1978 63.0361C34.7025 63.1869 34.8034 63.8052 34.8132 64.9203L34.826 66.3726ZM27.3328 62.1679H30.9553C32.0562 62.1679 32.2626 61.8247 32.2639 61.3128L32.265 60.8882C32.2669 60.1498 32.0612 59.848 30.9061 59.848H27.3328V62.1679ZM36.3924 66.3726V57.9632H45.4543V59.848H38.8573V61.2255H45.0917V63.0379H38.8573V64.4152H45.5992V66.3726H36.3924ZM54.7229 64.8502H49.5944L48.8133 66.3726H46.0947L50.5986 57.9632C51.6347 57.955 52.6826 57.955 53.7187 57.9632L58.2226 66.3726H55.504L54.7229 64.8502ZM52.1587 59.8519L50.5242 63.0378H53.7931L52.1587 59.8519ZM46.1992 73.9846V69.0549H51.5113V70.1598H47.6441V70.9672H51.2989V72.0297H47.6441V72.8372H51.5963V73.9846H46.1992ZM15.6789 73.9846V69.0549H20.991V70.1598H17.1238V70.9672H20.7785V72.0297H17.1238V72.8372H21.076V73.9846H15.6789ZM28.343 73.9846H26.1332L23.2859 70.314V73.9846H21.841V69.0549H24.0933L26.8981 72.6707V69.0549H28.343V73.9846ZM31.3234 68.9773H33.4377C35.2791 68.9773 35.3932 69.8263 35.3961 70.7223H33.9476V70.7061C33.9476 70.3859 33.7513 70.1247 33.2226 70.1247H31.6131C30.9741 70.1247 30.6779 70.4797 30.6779 70.9149V71.9906C30.6779 72.5849 30.9184 72.8526 32.1176 72.8526H33.2245C33.7408 72.8526 34.0251 72.6102 34.0251 72.0997H32.1352V71.1573H35.4749C35.4805 73.1681 35.6238 74 33.0794 74H31.9688C30.4861 74 29.233 74.0138 29.233 72.1253V70.8216C29.233 70.3094 29.3828 69.7605 29.6283 69.4878C29.9103 69.1747 30.524 68.9773 31.3234 68.9773ZM37.7899 73.9846H36.2675V69.0549H37.7899V73.9846ZM45.2343 73.9846H43.0245L40.1771 70.314V73.9846H38.7322V69.0549H40.9846L43.7894 72.6707V69.0549H45.2343V73.9846Z" fill="#AAAAAA"/>
</svg>
